<svg width="32" height="32" viewBox="0 0 32 32" fill="none" xmlns="http://www.w3.org/2000/svg">
<path d="M29.1916 16C29.1916 8.7145 23.2855 2.80847 16.0001 2.80847C8.71462 2.80847 2.80859 8.7145 2.80859 16C2.80859 23.2854 8.71462 29.1915 16.0001 29.1915C23.2855 29.1915 29.1916 23.2854 29.1916 16Z" fill="#F63333"/>
<path fill-rule="evenodd" clip-rule="evenodd" d="M22.8905 11.321C23.4621 11.8908 23.4621 12.8145 22.8905 13.3843L15.5713 20.6791C14.9997 21.2489 14.0728 21.2489 13.5011 20.6791L9.10965 16.3022C8.53799 15.7325 8.53799 14.8087 9.10965 14.2389C9.68132 13.6692 10.6082 13.6692 11.1798 14.2389L14.5362 17.5842L20.8203 11.321C21.392 10.7512 22.3188 10.7512 22.8905 11.321Z" fill="white"/>
<path fill-rule="evenodd" clip-rule="evenodd" d="M15.9996 4.28948C9.53202 4.28948 4.28899 9.53251 4.28899 16.0001C4.28899 22.4677 9.53202 27.7108 15.9996 27.7108C22.4672 27.7108 27.7103 22.4677 27.7103 16.0001C27.7103 9.53251 22.4672 4.28948 15.9996 4.28948ZM1.36133 16.0001C1.36133 7.91561 7.91512 1.36182 15.9996 1.36182C24.0841 1.36182 30.6379 7.91561 30.6379 16.0001C30.6379 24.0846 24.0841 30.6384 15.9996 30.6384C7.91512 30.6384 1.36133 24.0846 1.36133 16.0001Z" fill="#F63333"/>
</svg>
