<svg width="32" height="32" viewBox="0 0 32 32" fill="none" xmlns="http://www.w3.org/2000/svg">
<path d="M3.55566 27.037C3.55566 27.4103 3.70134 27.7683 3.96065 28.0322C4.21996 28.2962 4.57166 28.4444 4.93838 28.4444H27.0618C27.4286 28.4444 27.7803 28.2962 28.0396 28.0322C28.2989 27.7683 28.4446 27.4103 28.4446 27.037V11.5555H3.55566V27.037Z" fill="#F63333"/>
<path fill-rule="evenodd" clip-rule="evenodd" d="M8.88845 1.77783C9.67393 1.77783 10.3107 2.41458 10.3107 3.20005H14.5773C14.5773 2.41458 15.2141 1.77783 15.9996 1.77783C16.785 1.77783 17.4218 2.41458 17.4218 3.20005H21.6885C21.6885 2.41458 22.3252 1.77783 23.1107 1.77783C23.8961 1.77783 24.5329 2.41458 24.5329 3.20005H27.3773C28.1317 3.20005 28.8552 3.49974 29.3887 4.03317C29.9221 4.56661 30.2218 5.29011 30.2218 6.0445V27.3778C30.2218 28.1322 29.9221 28.8557 29.3887 29.3892C28.8552 29.9226 28.1317 30.2223 27.3773 30.2223H4.62179C3.8674 30.2223 3.1439 29.9226 2.61046 29.3892C2.07702 28.8557 1.77734 28.1322 1.77734 27.3778V6.0445C1.77734 5.2901 2.07703 4.56661 2.61046 4.03317C3.1439 3.49974 3.86739 3.20005 4.62179 3.20005H7.46623C7.46623 2.41458 8.10298 1.77783 8.88845 1.77783ZM7.46623 6.0445H4.62179V10.3112H27.3773V6.0445H24.5329C24.5329 6.82997 23.8961 7.46672 23.1107 7.46672C22.3252 7.46672 21.6885 6.82997 21.6885 6.0445H17.4218C17.4218 6.82997 16.785 7.46672 15.9996 7.46672C15.2141 7.46672 14.5773 6.82997 14.5773 6.0445H10.3107C10.3107 6.82997 9.67393 7.46672 8.88845 7.46672C8.10298 7.46672 7.46623 6.82997 7.46623 6.0445ZM27.3773 13.1556H4.62179V27.3778H27.3773V13.1556Z" fill="#F63333"/>
<path d="M11.0617 17.0505C11.0617 18.1216 10.1773 18.9899 9.08639 18.9899C7.99546 18.9899 7.11108 18.1216 7.11108 17.0505C7.11108 15.9794 7.99546 15.1111 9.08639 15.1111C10.1773 15.1111 11.0617 15.9794 11.0617 17.0505Z" fill="white"/>
<path d="M17.9753 17.0505C17.9753 18.1216 17.0909 18.9899 16 18.9899C14.909 18.9899 14.0247 18.1216 14.0247 17.0505C14.0247 15.9794 14.909 15.1111 16 15.1111C17.0909 15.1111 17.9753 15.9794 17.9753 17.0505Z" fill="white"/>
<path d="M24.8889 17.0505C24.8889 18.1216 24.0045 18.9899 22.9136 18.9899C21.8226 18.9899 20.9382 18.1216 20.9382 17.0505C20.9382 15.9794 21.8226 15.1111 22.9136 15.1111C24.0045 15.1111 24.8889 15.9794 24.8889 17.0505Z" fill="white"/>
<path d="M11.0617 23.8384C11.0617 24.9095 10.1773 25.7778 9.08639 25.7778C7.99546 25.7778 7.11108 24.9095 7.11108 23.8384C7.11108 22.7673 7.99546 21.899 9.08639 21.899C10.1773 21.899 11.0617 22.7673 11.0617 23.8384Z" fill="white"/>
<path d="M17.9753 23.8384C17.9753 24.9095 17.0909 25.7778 16 25.7778C14.909 25.7778 14.0247 24.9095 14.0247 23.8384C14.0247 22.7673 14.909 21.899 16 21.899C17.0909 21.899 17.9753 22.7673 17.9753 23.8384Z" fill="white"/>
<path d="M24.8889 23.8384C24.8889 24.9095 24.0045 25.7778 22.9136 25.7778C21.8226 25.7778 20.9382 24.9095 20.9382 23.8384C20.9382 22.7673 21.8226 21.899 22.9136 21.899C24.0045 21.899 24.8889 22.7673 24.8889 23.8384Z" fill="white"/>
</svg>
