<svg width="32" height="32" viewBox="0 0 32 32" fill="none" xmlns="http://www.w3.org/2000/svg">
<path fill-rule="evenodd" clip-rule="evenodd" d="M20.5712 8.61133C20.5712 7.7829 21.225 7.11133 22.0315 7.11133H26.4125C27.1871 7.11133 27.93 7.4274 28.4777 7.99001C29.0254 8.55262 29.3331 9.31568 29.3331 10.1113V28.1113C29.3331 28.907 29.0254 29.67 28.4777 30.2327C27.93 30.7953 27.1871 31.1113 26.4125 31.1113H11.8093C11.0347 31.1113 10.2918 30.7953 9.74411 30.2327C9.19638 29.67 8.88867 28.907 8.88867 28.1113V23.6113C8.88867 22.7829 9.54248 22.1113 10.349 22.1113C11.1555 22.1113 11.8093 22.7829 11.8093 23.6113V28.1113H26.4125L26.4125 10.1113L22.0315 10.1113C21.225 10.1113 20.5712 9.43976 20.5712 8.61133Z" fill="#F63333"/>
<path fill-rule="evenodd" clip-rule="evenodd" d="M3.52243 1.76735C4.07015 1.20474 4.81303 0.888672 5.58763 0.888672H20.1908C20.9654 0.888672 21.7083 1.20474 22.256 1.76735C22.8037 2.32996 23.1114 3.09302 23.1114 3.88867V21.8887C23.1114 22.6843 22.8037 23.4474 22.256 24.01C21.7083 24.5726 20.9654 24.8887 20.1908 24.8887H5.58763C4.81303 24.8887 4.07015 24.5726 3.52243 24.01C2.9747 23.4474 2.66699 22.6843 2.66699 21.8887V3.88867C2.66699 3.09302 2.9747 2.32996 3.52243 1.76735ZM17.2702 3.88867H20.1908V21.8887H5.58763L5.58763 3.88867H8.50826C8.50826 4.68432 8.81597 5.44738 9.3637 6.00999C9.91142 6.5726 10.6543 6.88867 11.4289 6.88867H14.3495C15.1241 6.88867 15.867 6.5726 16.4147 6.00999C16.9625 5.44738 17.2702 4.68432 17.2702 3.88867Z" fill="#F63333"/>
<path fill-rule="evenodd" clip-rule="evenodd" d="M10.667 23.1109H20.667C21.0795 23.1109 21.4752 22.957 21.7669 22.6832C22.0587 22.4093 22.2225 22.0379 22.2225 21.6506V8.88867H27.5559V29.3331H10.667V23.1109Z" fill="#F63333"/>
</svg>
