<svg width="32" height="32" viewBox="0 0 32 32" fill="none" xmlns="http://www.w3.org/2000/svg">
<path d="M20.6668 2.66669H16.0001V4.127C16.0001 4.5143 15.8362 4.88574 15.5445 5.1596C15.2528 5.43347 14.8571 5.58732 14.4446 5.58732H11.3334C10.9209 5.58732 10.5252 5.43347 10.2335 5.1596C9.94177 4.88574 9.77789 4.5143 9.77789 4.127V2.66669H5.11122C4.69866 2.66669 4.303 2.82054 4.01128 3.0944C3.71955 3.36827 3.55566 3.7397 3.55566 4.127V21.6508C3.55566 22.0381 3.71955 22.4096 4.01128 22.6834C4.303 22.9573 4.69866 23.1111 5.11122 23.1111H20.6668C21.0793 23.1111 21.475 22.9573 21.7667 22.6834C22.0584 22.4096 22.2223 22.0381 22.2223 21.6508V4.127C22.2223 3.7397 22.0584 3.36827 21.7667 3.0944C21.475 2.82054 21.0793 2.66669 20.6668 2.66669Z" fill="white"/>
<path fill-rule="evenodd" clip-rule="evenodd" d="M20.5715 8.61108C20.5715 7.78266 21.2253 7.11108 22.0318 7.11108H26.4127C27.1873 7.11108 27.9302 7.42715 28.4779 7.98976C29.0257 8.55237 29.3334 9.31544 29.3334 10.1111V28.1111C29.3334 28.9067 29.0257 29.6698 28.4779 30.2324C27.9302 30.795 27.1873 31.1111 26.4127 31.1111H11.8096C11.035 31.1111 10.2921 30.795 9.74435 30.2324C9.19662 29.6698 8.88892 28.9067 8.88892 28.1111V23.6111C8.88892 22.7827 9.54272 22.1111 10.3492 22.1111C11.1557 22.1111 11.8096 22.7827 11.8096 23.6111V28.1111H26.4127L26.4127 10.1111L22.0318 10.1111C21.2253 10.1111 20.5715 9.43951 20.5715 8.61108Z" fill="#7C7C7C"/>
<path fill-rule="evenodd" clip-rule="evenodd" d="M3.52243 1.7676C4.07015 1.20499 4.81303 0.888916 5.58763 0.888916H20.1908C20.9654 0.888916 21.7083 1.20499 22.256 1.7676C22.8037 2.3302 23.1114 3.09327 23.1114 3.88892V21.8889C23.1114 22.6846 22.8037 23.4476 22.256 24.0102C21.7083 24.5728 20.9654 24.8889 20.1908 24.8889H5.58763C4.81303 24.8889 4.07015 24.5728 3.52243 24.0102C2.9747 23.4476 2.66699 22.6846 2.66699 21.8889V3.88892C2.66699 3.09327 2.9747 2.3302 3.52243 1.7676ZM17.2702 3.88892H20.1908V21.8889H5.58763L5.58763 3.88892H8.50826C8.50826 4.68457 8.81597 5.44763 9.3637 6.01024C9.91142 6.57284 10.6543 6.88892 11.4289 6.88892H14.3495C15.1241 6.88892 15.867 6.57284 16.4147 6.01024C16.9625 5.44763 17.2702 4.68457 17.2702 3.88892Z" fill="#7C7C7C"/>
</svg>
