<svg width="32" height="32" viewBox="0 0 32 32" fill="none" xmlns="http://www.w3.org/2000/svg">
<path fill-rule="evenodd" clip-rule="evenodd" d="M12.566 2.61095C13.0995 2.07751 13.8229 1.77783 14.5773 1.77783H17.4218C18.1762 1.77783 18.8997 2.07751 19.4331 2.61095C19.9665 3.14439 20.2662 3.86788 20.2662 4.62228L20.2662 5.46034C20.3241 5.4792 20.3806 5.50175 20.4356 5.52785C20.4374 5.52603 20.4392 5.52421 20.441 5.52239L21.02 4.94341C21.0209 4.94255 21.0217 4.9417 21.0226 4.94084C21.2865 4.67544 21.6002 4.46473 21.9457 4.32079C22.2923 4.17638 22.6641 4.10203 23.0396 4.10203C23.4151 4.10203 23.7869 4.17638 24.1335 4.32079C24.4801 4.46519 24.7947 4.6768 25.0591 4.94341L27.0749 6.97336C27.3394 7.23687 27.5494 7.5499 27.6931 7.89459C27.8375 8.24121 27.9118 8.61299 27.9118 8.9885C27.9118 9.36401 27.8375 9.73579 27.6931 10.0824C27.5491 10.428 27.3383 10.7418 27.0727 11.0058C27.072 11.0065 27.0712 11.0073 27.0704 11.0081L26.4914 11.5871C26.4896 11.5889 26.4878 11.5907 26.486 11.5925C26.5078 11.6384 26.5271 11.6854 26.5439 11.7334L27.3773 11.7334C28.1317 11.7334 28.8552 12.0331 29.3887 12.5665C29.9221 13.0999 30.2218 13.8234 30.2218 14.5778V17.4649C30.2218 18.2193 29.9221 18.9428 29.3887 19.4763C28.8552 20.0097 28.1317 20.3094 27.3773 20.3094L26.4586 20.3094C26.4418 20.3573 26.4225 20.4044 26.4007 20.4503C26.4025 20.4521 26.4043 20.4539 26.4061 20.4557L26.9851 21.0347C26.9858 21.0354 26.9864 21.036 26.9871 21.0367C27.2528 21.3007 27.4637 21.6146 27.6077 21.9604C27.7521 22.307 27.8265 22.6788 27.8265 23.0543C27.8265 23.4298 27.7521 23.8016 27.6077 24.1482C27.4637 24.4938 27.2529 24.8077 26.9873 25.0716C26.9866 25.0724 26.9858 25.0731 26.9851 25.0738L24.988 27.0709C24.9873 27.0717 24.9865 27.0724 24.9858 27.0731C24.7218 27.3387 24.408 27.5495 24.0624 27.6935C23.7157 27.8379 23.344 27.9123 22.9685 27.9123C22.5929 27.9123 22.2212 27.8379 21.8745 27.6935C21.529 27.5496 21.2152 27.3388 20.9513 27.0733C20.9505 27.0725 20.9497 27.0717 20.9489 27.0709L20.3699 26.4919C20.3681 26.4901 20.3663 26.4883 20.3645 26.4865C20.3186 26.5083 20.2715 26.5276 20.2236 26.5444L20.2236 27.3778C20.2236 28.1322 19.9239 28.8557 19.3904 29.3892C18.857 29.9226 18.1335 30.2223 17.3791 30.2223H14.5347C13.7803 30.2223 13.0568 29.9226 12.5234 29.3892C11.9899 28.8557 11.6902 28.1322 11.6902 27.3778L11.6902 26.4733C11.6423 26.4565 11.5952 26.4372 11.5493 26.4154C11.5475 26.4172 11.5457 26.419 11.5439 26.4208L10.9649 26.9998C10.9641 27.0007 10.9632 27.0015 10.9624 27.0023C10.6985 27.2678 10.3848 27.4785 10.0393 27.6224C9.69262 27.7668 9.32084 27.8412 8.94534 27.8412C8.56985 27.8412 8.19806 27.7668 7.85144 27.6224C7.50594 27.4785 7.19226 27.2678 6.92837 27.0024C6.92751 27.0015 6.92665 27.0007 6.92579 26.9998L4.9287 25.0027C4.92788 25.0019 4.92706 25.0011 4.92624 25.0003C4.66079 24.7364 4.45004 24.4226 4.30608 24.0771C4.16167 23.7304 4.08732 23.3587 4.08732 22.9832C4.08732 22.6077 4.16167 22.2359 4.30608 21.8893C4.45005 21.5437 4.66081 21.2299 4.92627 20.966C4.92708 20.9652 4.92789 20.9644 4.9287 20.9636L5.50768 20.3846C5.50949 20.3828 5.51131 20.381 5.51314 20.3792C5.49134 20.3333 5.47201 20.2862 5.45524 20.2383H4.62179C3.8674 20.2383 3.1439 19.9386 2.61046 19.4052C2.07702 18.8717 1.77734 18.1482 1.77734 17.3938V14.5494C1.77734 13.795 2.07703 13.0715 2.61046 12.5381C3.1439 12.0046 3.86739 11.7049 4.62179 11.7049H5.46946C5.48623 11.657 5.50556 11.6099 5.52736 11.564C5.52554 11.5622 5.52372 11.5604 5.5219 11.5586L4.94047 10.9772C4.67502 10.7132 4.46426 10.3995 4.3203 10.054C4.17589 9.70734 4.10154 9.33556 4.10154 8.96005C4.10154 8.58455 4.17589 8.21277 4.3203 7.86615C4.4646 7.51978 4.676 7.2054 4.94233 6.94109C4.94253 6.94089 4.94272 6.9407 4.94292 6.9405L6.97291 4.92471C7.23641 4.66021 7.54943 4.45016 7.8941 4.30656C8.24073 4.16216 8.61251 4.08781 8.98801 4.08781C9.36351 4.08781 9.73529 4.16216 10.0819 4.30656C10.4275 4.45053 10.7412 4.66129 11.0051 4.92673L11.5866 5.50817C11.5884 5.50998 11.5902 5.5118 11.592 5.51363C11.6379 5.49182 11.6849 5.4725 11.7329 5.45573V4.62228C11.7329 3.86788 12.0326 3.14439 12.566 2.61095ZM17.4218 4.62228H14.5773V5.46139L14.5773 5.46705C14.575 6.05505 14.3905 6.62787 14.0492 7.10669C13.7227 7.5648 13.268 7.91532 12.7432 8.11471C12.2281 8.34267 11.6564 8.41281 11.1005 8.31528C10.521 8.21362 9.98736 7.93479 9.573 7.51726L8.99212 6.93638L8.98801 6.93225C8.98717 6.9331 8.98632 6.93395 8.98547 6.9348C8.98377 6.93651 8.98207 6.93821 8.98036 6.93991L6.94599 8.96005L6.95012 8.96417L7.53095 9.545C7.94851 9.95937 8.22735 10.493 8.32902 11.0725C8.42654 11.6284 8.3564 12.2002 8.12844 12.7152C7.92905 13.24 7.57853 13.6947 7.12042 14.0212C6.6416 14.3625 6.06878 14.547 5.48079 14.5494L5.47512 14.5494H4.62179V17.3938H5.4609L5.46657 17.3938C6.05456 17.3962 6.62738 17.5807 7.1062 17.922C7.56431 18.2485 7.91483 18.7032 8.11423 19.228C8.34218 19.7431 8.41232 20.3148 8.3148 20.8707C8.21313 21.4502 7.93427 21.9839 7.51669 22.3983L6.9359 22.979L6.93176 22.9832L6.9359 22.9873L8.94123 24.9926L8.94534 24.9967L8.94946 24.9926L9.53038 24.4117C9.94473 23.9942 10.4784 23.7154 11.0578 23.6137C11.6137 23.5162 12.1855 23.5863 12.7005 23.8143C13.2253 24.0137 13.68 24.3642 14.0065 24.8223C14.3478 25.3011 14.5323 25.8739 14.5347 26.4619L14.5347 26.4676V27.3778H17.3791V26.5387L17.3791 26.5331C17.3815 25.9451 17.566 25.3722 17.9073 24.8934C18.2338 24.4353 18.6885 24.0848 19.2133 23.8854C19.7283 23.6574 20.3001 23.5873 20.856 23.6848C21.4355 23.7865 21.9692 24.0654 22.3836 24.483C22.3846 24.484 22.3856 24.485 22.3867 24.4861L22.9643 25.0637L22.9685 25.0679L22.9726 25.0637L24.9779 23.0584L24.982 23.0543L24.9779 23.0502L24.3972 22.4694C23.9795 22.055 23.7007 21.5213 23.599 20.9418C23.5015 20.3859 23.5716 19.8142 23.7996 19.2991C23.999 18.7743 24.3495 18.3196 24.8076 17.9931C25.2864 17.6518 25.8592 17.4673 26.4472 17.465L26.4529 17.4649H27.3773V14.5778H26.5382L26.5326 14.5778C25.9446 14.5755 25.3717 14.391 24.8929 14.0497C24.4348 13.7232 24.0843 13.2685 23.8849 12.7437C23.6569 12.2286 23.5868 11.6569 23.6843 11.101C23.786 10.5215 24.0648 9.98788 24.4823 9.57353C24.4834 9.57245 24.4845 9.57137 24.4856 9.57029L25.0632 8.99261L25.0674 8.9885C25.0648 8.98596 25.0623 8.98341 25.0597 8.98085L23.0396 6.94647L23.0354 6.9506L22.4547 7.53135C22.0403 7.94896 21.5066 8.22783 20.9271 8.3295C20.3761 8.42616 19.8096 8.35813 19.2981 8.13498C18.7641 7.94168 18.2994 7.5926 17.9648 7.13192C17.6123 6.6466 17.4222 6.06226 17.4218 5.46244L17.4218 5.46139V4.62228ZM15.9996 13.1556C15.437 13.1556 14.887 13.3224 14.4193 13.635C13.9515 13.9475 13.5869 14.3918 13.3716 14.9115C13.1564 15.4313 13.1 16.0032 13.2098 16.555C13.3195 17.1067 13.5904 17.6136 13.9882 18.0114C14.386 18.4092 14.8929 18.6801 15.4446 18.7898C15.9964 18.8996 16.5683 18.8433 17.0881 18.628C17.6078 18.4127 18.0521 18.0481 18.3646 17.5803C18.6772 17.1126 18.844 16.5626 18.844 16.0001C18.844 15.2457 18.5443 14.5222 18.0109 13.9887C17.4775 13.4553 16.754 13.1556 15.9996 13.1556ZM12.839 11.2699C13.7745 10.6448 14.8744 10.3112 15.9996 10.3112C17.5084 10.3112 18.9553 10.9105 20.0222 11.9774C21.0891 13.0443 21.6885 14.4913 21.6885 16.0001C21.6885 17.1252 21.3548 18.2251 20.7297 19.1606C20.1046 20.0962 19.2161 20.8253 18.1766 21.2559C17.1371 21.6865 15.9933 21.7991 14.8897 21.5796C13.7862 21.3601 12.7725 20.8183 11.9769 20.0227C11.1813 19.2271 10.6395 18.2134 10.42 17.1099C10.2005 16.0064 10.3131 14.8625 10.7437 13.823C11.1743 12.7835 11.9035 11.895 12.839 11.2699Z" fill="#F63333"/>
</svg>
